<svg width="70" height="70" viewBox="0 0 92 85" fill="none" xmlns="http://www.w3.org/2000/svg">
<path fill-rule="evenodd" clip-rule="evenodd" d="M59.8006 34C59.8006 41.0416 53.6221 46.75 46.0006 46.75C38.379 46.75 32.2006 41.0416 32.2006 34C32.2006 26.9584 38.379 21.25 46.0006 21.25C53.6221 21.25 59.8006 26.9584 59.8006 34ZM55.2006 34C55.2006 38.6944 51.0816 42.5 46.0006 42.5C40.9195 42.5 36.8006 38.6944 36.8006 34C36.8006 29.3056 40.9195 25.5 46.0006 25.5C51.0816 25.5 55.2006 29.3056 55.2006 34Z" fill="#4F378A"/>
<path d="M46.0006 53.125C31.1095 53.125 18.4219 61.2604 13.5889 72.6581C14.7662 73.7383 16.0065 74.76 17.3041 75.7181C20.903 65.2538 32.193 57.375 46.0006 57.375C59.8081 57.375 71.0981 65.2539 74.697 75.7182C75.9947 74.76 77.2349 73.7383 78.4123 72.6581C73.5793 61.2604 60.8917 53.125 46.0006 53.125Z" fill="#4F378A"/>
</svg>
